<?xml version="1.0" encoding="UTF-8" standalone="no"?>
<!-- Created with Inkscape (http://www.inkscape.org/) -->

<svg
   xmlns:dc="http://purl.org/dc/elements/1.1/"
   xmlns:cc="http://creativecommons.org/ns#"
   xmlns:rdf="http://www.w3.org/1999/02/22-rdf-syntax-ns#"
   xmlns:svg="http://www.w3.org/2000/svg"
   xmlns="http://www.w3.org/2000/svg"
   xmlns:sodipodi="http://sodipodi.sourceforge.net/DTD/sodipodi-0.dtd"
   xmlns:inkscape="http://www.inkscape.org/namespaces/inkscape"
   width="116.6683mm"
   height="87.640587mm"
   viewBox="0 0 116.6683 87.640587"
   version="1.1"
   id="svg8"
   inkscape:version="0.92.5 (2060ec1f9f, 2020-04-08)"
   sodipodi:docname="DateTime classes visualization.svg">
  <defs
     id="defs2" />
  <sodipodi:namedview
     id="base"
     pagecolor="#ffffff"
     bordercolor="#666666"
     borderopacity="1.0"
     inkscape:pageopacity="0.0"
     inkscape:pageshadow="2"
     inkscape:zoom="1.4142136"
     inkscape:cx="305.16698"
     inkscape:cy="154.46533"
     inkscape:document-units="mm"
     inkscape:current-layer="layer1"
     showgrid="false"
     inkscape:window-width="1872"
     inkscape:window-height="1080"
     inkscape:window-x="48"
     inkscape:window-y="-37"
     inkscape:window-maximized="1" />
  <metadata
     id="metadata5">
    <rdf:RDF>
      <cc:Work
         rdf:about="">
        <dc:format>image/svg+xml</dc:format>
        <dc:type
           rdf:resource="http://purl.org/dc/dcmitype/StillImage" />
        <dc:title></dc:title>
      </cc:Work>
    </rdf:RDF>
  </metadata>
  <g
     inkscape:label="Layer 1"
     inkscape:groupmode="layer"
     id="layer1"
     transform="translate(-35.596725,-38.199677)">
    <path
       style="font-style:normal;font-weight:normal;font-size:10.58333302px;line-height:1.25;font-family:sans-serif;letter-spacing:0px;word-spacing:0px;fill:#000000;fill-opacity:1;stroke:none;stroke-width:0.99999994"
       d="M 11.113281 61.3125 C 9.967448 61.3125 8.704427 61.47526 7.3242188 61.800781 C 5.9440105 62.126302 4.4596354 62.608073 2.8710938 63.246094 L 2.8710938 67.230469 C 4.4335937 66.358073 5.8984375 65.707031 7.265625 65.277344 C 8.6458333 64.847656 9.9544271 64.632812 11.191406 64.632812 C 12.936198 64.632812 14.348958 65.121094 15.429688 66.097656 C 16.523437 67.074219 17.070312 68.33724 17.070312 69.886719 C 17.070312 70.83724 16.816406 71.807292 16.308594 72.796875 C 15.813802 73.773437 14.934896 74.971354 13.671875 76.390625 C 13.007813 77.145833 11.380208 78.832031 8.7890625 81.449219 C 6.2109376 84.053385 4.173177 86.130208 2.6757812 87.679688 L 2.6757812 91 L 21.191406 91 L 21.191406 87.679688 L 7.421875 87.679688 C 10.598958 84.4375 13.059896 81.917969 14.804688 80.121094 C 16.549479 78.311198 17.584635 77.217448 17.910156 76.839844 C 19.095052 75.38151 19.908854 74.11849 20.351562 73.050781 C 20.807292 71.970052 21.035156 70.830729 21.035156 69.632812 C 21.035156 67.106771 20.136719 65.088542 18.339844 63.578125 C 16.542969 62.067708 14.134114 61.3125 11.113281 61.3125 z M 37.910156 61.3125 C 34.641927 61.3125 32.141927 62.608073 30.410156 65.199219 C 28.691406 67.777344 27.832031 71.527344 27.832031 76.449219 C 27.832031 81.358073 28.691406 85.108073 30.410156 87.699219 C 32.141927 90.277344 34.641927 91.566406 37.910156 91.566406 C 41.178385 91.566406 43.671875 90.277344 45.390625 87.699219 C 47.122396 85.108073 47.988281 81.358073 47.988281 76.449219 C 47.988281 71.527344 47.122396 67.777344 45.390625 65.199219 C 43.671875 62.608073 41.178385 61.3125 37.910156 61.3125 z M 62.011719 61.3125 C 60.865885 61.3125 59.602865 61.47526 58.222656 61.800781 C 56.842448 62.126302 55.358073 62.608073 53.769531 63.246094 L 53.769531 67.230469 C 55.332031 66.358073 56.796875 65.707031 58.164062 65.277344 C 59.544271 64.847656 60.852865 64.632812 62.089844 64.632812 C 63.834635 64.632812 65.247396 65.121094 66.328125 66.097656 C 67.421875 67.074219 67.96875 68.33724 67.96875 69.886719 C 67.96875 70.83724 67.714844 71.807292 67.207031 72.796875 C 66.71224 73.773437 65.833333 74.971354 64.570312 76.390625 C 63.90625 77.145833 62.278646 78.832031 59.6875 81.449219 C 57.109375 84.053385 55.071615 86.130208 53.574219 87.679688 L 53.574219 91 L 72.089844 91 L 72.089844 87.679688 L 58.320312 87.679688 C 61.497396 84.4375 63.958333 81.917969 65.703125 80.121094 C 67.447917 78.311198 68.483073 77.217448 68.808594 76.839844 C 69.99349 75.38151 70.807292 74.11849 71.25 73.050781 C 71.705729 71.970052 71.933594 70.830729 71.933594 69.632812 C 71.933594 67.106771 71.035156 65.088542 69.238281 63.578125 C 67.441406 62.067708 65.032552 61.3125 62.011719 61.3125 z M 87.929688 61.3125 C 86.770833 61.3125 85.533854 61.416667 84.21875 61.625 C 82.916667 61.833333 81.516927 62.145833 80.019531 62.5625 L 80.019531 66.078125 C 81.503906 65.583333 82.864583 65.21875 84.101562 64.984375 C 85.338542 64.75 86.497396 64.632812 87.578125 64.632812 C 89.557292 64.632812 91.074219 65.036458 92.128906 65.84375 C 93.196615 66.638021 93.730469 67.783854 93.730469 69.28125 C 93.730469 70.739583 93.216146 71.859375 92.1875 72.640625 C 91.158854 73.408854 89.674479 73.792969 87.734375 73.792969 L 84.179688 73.792969 L 84.179688 77.035156 L 87.578125 77.035156 C 89.726562 77.035156 91.39974 77.523438 92.597656 78.5 C 93.808594 79.463542 94.414063 80.804688 94.414062 82.523438 C 94.414063 84.385417 93.763021 85.804688 92.460938 86.78125 C 91.171875 87.757812 89.290365 88.246094 86.816406 88.246094 C 85.397135 88.246094 84.036458 88.083333 82.734375 87.757812 C 81.432292 87.432292 80.234375 86.950521 79.140625 86.3125 L 79.140625 90.121094 C 80.520833 90.602865 81.855469 90.960938 83.144531 91.195312 C 84.446615 91.442708 85.709635 91.566406 86.933594 91.566406 C 90.579427 91.566406 93.391927 90.778646 95.371094 89.203125 C 97.35026 87.627604 98.339844 85.401042 98.339844 82.523438 C 98.339844 80.648438 97.80599 79.072917 96.738281 77.796875 C 95.683594 76.520833 94.21224 75.68099 92.324219 75.277344 C 94.029948 74.847656 95.345052 74.079427 96.269531 72.972656 C 97.19401 71.852865 97.65625 70.485677 97.65625 68.871094 C 97.65625 66.553385 96.783854 64.717448 95.039062 63.363281 C 93.294271 61.996094 90.924479 61.3125 87.929688 61.3125 z M 128.69141 61.3125 C 125.42318 61.3125 122.92318 62.608073 121.19141 65.199219 C 119.47266 67.777344 118.61328 71.527344 118.61328 76.449219 C 118.61328 81.358073 119.47266 85.108073 121.19141 87.699219 C 122.92318 90.277344 125.42318 91.566406 128.69141 91.566406 C 131.95964 91.566406 134.45313 90.277344 136.17188 87.699219 C 137.90365 85.108073 138.76953 81.358073 138.76953 76.449219 C 138.76953 71.527344 137.90365 67.777344 136.17188 65.199219 C 134.45313 62.608073 131.95964 61.3125 128.69141 61.3125 z M 192.67578 61.3125 C 191.52995 61.3125 190.26693 61.47526 188.88672 61.800781 C 187.50651 62.126302 186.02214 62.608073 184.43359 63.246094 L 184.43359 67.230469 C 185.99609 66.358073 187.46094 65.707031 188.82812 65.277344 C 190.20833 64.847656 191.51693 64.632812 192.75391 64.632812 C 194.4987 64.632812 195.91146 65.121094 196.99219 66.097656 C 198.08594 67.074219 198.63281 68.33724 198.63281 69.886719 C 198.63281 70.83724 198.37891 71.807292 197.87109 72.796875 C 197.3763 73.773437 196.4974 74.971354 195.23438 76.390625 C 194.57031 77.145833 192.94271 78.832031 190.35156 81.449219 C 187.77344 84.053385 185.73568 86.130208 184.23828 87.679688 L 184.23828 91 L 202.75391 91 L 202.75391 87.679688 L 188.98438 87.679688 C 192.16146 84.4375 194.6224 81.917969 196.36719 80.121094 C 198.11198 78.311198 199.14714 77.217448 199.47266 76.839844 C 200.65755 75.38151 201.47135 74.11849 201.91406 73.050781 C 202.36979 71.970052 202.59766 70.830729 202.59766 69.632812 C 202.59766 67.106771 201.69922 65.088542 199.90234 63.578125 C 198.10547 62.067708 195.69661 61.3125 192.67578 61.3125 z M 218.59375 61.3125 C 217.4349 61.3125 216.19792 61.416667 214.88281 61.625 C 213.58073 61.833333 212.18099 62.145833 210.68359 62.5625 L 210.68359 66.078125 C 212.16797 65.583333 213.52865 65.21875 214.76562 64.984375 C 216.0026 64.75 217.16146 64.632812 218.24219 64.632812 C 220.22135 64.632812 221.73828 65.036458 222.79297 65.84375 C 223.86068 66.638021 224.39453 67.783854 224.39453 69.28125 C 224.39453 70.739583 223.88021 71.859375 222.85156 72.640625 C 221.82292 73.408854 220.33854 73.792969 218.39844 73.792969 L 214.84375 73.792969 L 214.84375 77.035156 L 218.24219 77.035156 C 220.39062 77.035156 222.0638 77.523438 223.26172 78.5 C 224.47266 79.463542 225.07812 80.804688 225.07812 82.523438 C 225.07812 84.385417 224.42708 85.804688 223.125 86.78125 C 221.83594 87.757812 219.95443 88.246094 217.48047 88.246094 C 216.0612 88.246094 214.70052 88.083333 213.39844 87.757812 C 212.09635 87.432292 210.89844 86.950521 209.80469 86.3125 L 209.80469 90.121094 C 211.1849 90.602865 212.51953 90.960938 213.80859 91.195312 C 215.11068 91.442708 216.3737 91.566406 217.59766 91.566406 C 221.24349 91.566406 224.05599 90.778646 226.03516 89.203125 C 228.01432 87.627604 229.00391 85.401042 229.00391 82.523438 C 229.00391 80.648438 228.47005 79.072917 227.40234 77.796875 C 226.34766 76.520833 224.8763 75.68099 222.98828 75.277344 C 224.69401 74.847656 226.00911 74.079427 226.93359 72.972656 C 227.85807 71.852865 228.32031 70.485677 228.32031 68.871094 C 228.32031 66.553385 227.44792 64.717448 225.70312 63.363281 C 223.95833 61.996094 221.58854 61.3125 218.59375 61.3125 z M 294.80469 61.3125 C 291.91406 61.3125 289.63542 61.989583 287.96875 63.34375 C 286.3151 64.697917 285.48828 66.540365 285.48828 68.871094 C 285.48828 70.53776 285.95703 71.950521 286.89453 73.109375 C 287.84505 74.268229 289.16667 75.05599 290.85938 75.472656 C 288.95833 75.915365 287.47396 76.78125 286.40625 78.070312 C 285.33854 79.359375 284.80469 80.934896 284.80469 82.796875 C 284.80469 85.622396 285.66406 87.790365 287.38281 89.300781 C 289.11458 90.811198 291.58854 91.566406 294.80469 91.566406 C 298.02083 91.566406 300.48828 90.811198 302.20703 89.300781 C 303.9388 87.790365 304.80469 85.622396 304.80469 82.796875 C 304.80469 80.934896 304.27083 79.359375 303.20312 78.070312 C 302.14844 76.78125 300.67057 75.915365 298.76953 75.472656 C 300.44922 75.05599 301.75781 74.268229 302.69531 73.109375 C 303.64583 71.950521 304.12109 70.53776 304.12109 68.871094 C 304.12109 66.540365 303.29427 64.697917 301.64062 63.34375 C 299.98698 61.989583 297.70833 61.3125 294.80469 61.3125 z M 332.38281 61.3125 C 331.23698 61.3125 329.97396 61.47526 328.59375 61.800781 C 327.21354 62.126302 325.72917 62.608073 324.14062 63.246094 L 324.14062 67.230469 C 325.70312 66.358073 327.16797 65.707031 328.53516 65.277344 C 329.91536 64.847656 331.22396 64.632812 332.46094 64.632812 C 334.20573 64.632812 335.61849 65.121094 336.69922 66.097656 C 337.79297 67.074219 338.33984 68.33724 338.33984 69.886719 C 338.33984 70.83724 338.08594 71.807292 337.57812 72.796875 C 337.08333 73.773437 336.20443 74.971354 334.94141 76.390625 C 334.27734 77.145833 332.64974 78.832031 330.05859 81.449219 C 327.48047 84.053385 325.44271 86.130208 323.94531 87.679688 L 323.94531 91 L 342.46094 91 L 342.46094 87.679688 L 328.69141 87.679688 C 331.86849 84.4375 334.32943 81.917969 336.07422 80.121094 C 337.81901 78.311198 338.85417 77.217448 339.17969 76.839844 C 340.36458 75.38151 341.17839 74.11849 341.62109 73.050781 C 342.07682 71.970052 342.30469 70.830729 342.30469 69.632812 C 342.30469 67.106771 341.40625 65.088542 339.60938 63.578125 C 337.8125 62.067708 335.40365 61.3125 332.38281 61.3125 z M 396.75781 61.3125 C 395.61198 61.3125 394.34896 61.47526 392.96875 61.800781 C 391.58854 62.126302 390.10417 62.608073 388.51562 63.246094 L 388.51562 67.230469 C 390.07812 66.358073 391.54297 65.707031 392.91016 65.277344 C 394.29036 64.847656 395.59896 64.632812 396.83594 64.632812 C 398.58073 64.632812 399.99349 65.121094 401.07422 66.097656 C 402.16797 67.074219 402.71484 68.33724 402.71484 69.886719 C 402.71484 70.83724 402.46094 71.807292 401.95312 72.796875 C 401.45833 73.773437 400.57943 74.971354 399.31641 76.390625 C 398.65234 77.145833 397.02474 78.832031 394.43359 81.449219 C 391.85547 84.053385 389.81771 86.130208 388.32031 87.679688 L 388.32031 91 L 406.83594 91 L 406.83594 87.679688 L 393.06641 87.679688 C 396.24349 84.4375 398.70443 81.917969 400.44922 80.121094 C 402.19401 78.311198 403.22917 77.217448 403.55469 76.839844 C 404.73958 75.38151 405.55339 74.11849 405.99609 73.050781 C 406.45182 71.970052 406.67969 70.830729 406.67969 69.632812 C 406.67969 67.106771 405.78125 65.088542 403.98438 63.578125 C 402.1875 62.067708 399.77865 61.3125 396.75781 61.3125 z M 423.55469 61.3125 C 420.28646 61.3125 417.78646 62.608073 416.05469 65.199219 C 414.33594 67.777344 413.47656 71.527344 413.47656 76.449219 C 413.47656 81.358073 414.33594 85.108073 416.05469 87.699219 C 417.78646 90.277344 420.28646 91.566406 423.55469 91.566406 C 426.82292 91.566406 429.31641 90.277344 431.03516 87.699219 C 432.76693 85.108073 433.63281 81.358073 433.63281 76.449219 C 433.63281 71.527344 432.76693 67.777344 431.03516 65.199219 C 429.31641 62.608073 426.82292 61.3125 423.55469 61.3125 z M 155.50781 61.839844 L 143.37891 80.316406 L 143.37891 84.125 L 156.54297 84.125 L 156.54297 91 L 160.46875 91 L 160.46875 84.125 L 164.62891 84.125 L 164.62891 80.84375 L 160.46875 80.84375 L 160.46875 61.839844 L 155.50781 61.839844 z M 232.08984 61.839844 L 232.08984 65.160156 L 242.44141 65.160156 L 242.44141 91 L 246.40625 91 L 246.40625 65.160156 L 256.75781 65.160156 L 256.75781 61.839844 L 232.08984 61.839844 z M 268.00781 61.839844 L 261.03516 63.246094 L 261.03516 66.839844 L 268.04688 65.433594 L 268.04688 87.679688 L 261.60156 87.679688 L 261.60156 91 L 278.39844 91 L 278.39844 87.679688 L 271.95312 87.679688 L 271.95312 61.839844 L 268.00781 61.839844 z M 360.54688 61.839844 L 348.41797 80.316406 L 348.41797 84.125 L 361.58203 84.125 L 361.58203 91 L 365.50781 91 L 365.50781 84.125 L 369.66797 84.125 L 369.66797 80.84375 L 365.50781 80.84375 L 365.50781 61.839844 L 360.54688 61.839844 z M 37.910156 64.4375 C 39.954427 64.4375 41.484375 65.440104 42.5 67.445312 C 43.528646 69.4375 44.042969 72.438802 44.042969 76.449219 C 44.042969 80.446614 43.528646 83.447917 42.5 85.453125 C 41.484375 87.445312 39.954427 88.441406 37.910156 88.441406 C 35.878906 88.441406 34.348958 87.445312 33.320312 85.453125 C 32.304688 83.447917 31.796875 80.446614 31.796875 76.449219 C 31.796875 72.438802 32.304688 69.4375 33.320312 67.445312 C 34.348958 65.440104 35.878906 64.4375 37.910156 64.4375 z M 128.69141 64.4375 C 130.73568 64.4375 132.26563 65.440104 133.28125 67.445312 C 134.3099 69.4375 134.82422 72.438802 134.82422 76.449219 C 134.82422 80.446614 134.3099 83.447917 133.28125 85.453125 C 132.26563 87.445312 130.73568 88.441406 128.69141 88.441406 C 126.66016 88.441406 125.13021 87.445312 124.10156 85.453125 C 123.08594 83.447917 122.57812 80.446614 122.57812 76.449219 C 122.57813 72.438802 123.08594 69.4375 124.10156 67.445312 C 125.13021 65.440104 126.66016 64.4375 128.69141 64.4375 z M 294.80469 64.4375 C 296.4974 64.4375 297.81901 64.860677 298.76953 65.707031 C 299.73307 66.553385 300.21484 67.731771 300.21484 69.242188 C 300.21484 70.752604 299.73307 71.93099 298.76953 72.777344 C 297.81901 73.623698 296.4974 74.046875 294.80469 74.046875 C 293.09896 74.046875 291.77083 73.623698 290.82031 72.777344 C 289.88281 71.93099 289.41406 70.752604 289.41406 69.242188 C 289.41406 67.731771 289.88281 66.553385 290.82031 65.707031 C 291.77083 64.860677 293.09896 64.4375 294.80469 64.4375 z M 423.55469 64.4375 C 425.59896 64.4375 427.12891 65.440104 428.14453 67.445312 C 429.17318 69.4375 429.6875 72.438802 429.6875 76.449219 C 429.6875 80.446614 429.17318 83.447917 428.14453 85.453125 C 427.12891 87.445312 425.59896 88.441406 423.55469 88.441406 C 421.52344 88.441406 419.99349 87.445312 418.96484 85.453125 C 417.94922 83.447917 417.44141 80.446614 417.44141 76.449219 C 417.44141 72.438802 417.94922 69.4375 418.96484 67.445312 C 419.99349 65.440104 421.52344 64.4375 423.55469 64.4375 z M 156.54297 65.277344 L 156.54297 80.84375 L 146.58203 80.84375 L 156.54297 65.277344 z M 361.58203 65.277344 L 361.58203 80.84375 L 351.62109 80.84375 L 361.58203 65.277344 z M 312.22656 70.316406 L 312.22656 75.277344 L 316.34766 75.277344 L 316.34766 70.316406 L 312.22656 70.316406 z M 376.60156 70.316406 L 376.60156 75.277344 L 380.72266 75.277344 L 380.72266 70.316406 L 376.60156 70.316406 z M 294.80469 77.152344 C 296.69271 77.152344 298.17057 77.653646 299.23828 78.65625 C 300.31901 79.658854 300.85938 81.039063 300.85938 82.796875 C 300.85938 84.541667 300.31901 85.921875 299.23828 86.9375 C 298.15755 87.940104 296.67969 88.441406 294.80469 88.441406 C 292.92969 88.441406 291.45182 87.940104 290.37109 86.9375 C 289.30339 85.934896 288.76953 84.554687 288.76953 82.796875 C 288.76953 81.039063 289.30339 79.658854 290.37109 78.65625 C 291.45182 77.653646 292.92969 77.152344 294.80469 77.152344 z M 103.49609 78.441406 L 103.49609 81.644531 L 114.02344 81.644531 L 114.02344 78.441406 L 103.49609 78.441406 z M 168.82812 78.441406 L 168.82812 81.644531 L 179.35547 81.644531 L 179.35547 78.441406 L 168.82812 78.441406 z M 312.22656 86.039062 L 312.22656 91 L 316.34766 91 L 316.34766 86.039062 L 312.22656 86.039062 z M 376.60156 86.039062 L 376.60156 91 L 380.72266 91 L 380.72266 86.039062 L 376.60156 86.039062 z "
       transform="matrix(0.26458333,0,0,0.26458333,35.596725,38.199677)"
       id="text817" />
    <path
       style="fill:none;stroke:#000000;stroke-width:1;stroke-linecap:butt;stroke-linejoin:miter;stroke-miterlimit:4;stroke-dasharray:none;stroke-opacity:1"
       d="m 36.096725,52.085733 c 0,-6.49796 11.288877,-0.24231 12.945684,-6.4256 1.703122,6.35614 12.945684,0.0778 12.945684,6.4256"
       id="path819"
       inkscape:connector-curvature="0"
       sodipodi:nodetypes="ccc" />
    <path
       sodipodi:nodetypes="ccc"
       inkscape:connector-curvature="0"
       id="path821"
       d="m 36.096725,65.187197 c 0,6.49796 19.982329,0.242309 21.639136,6.425595 1.703122,-6.356139 20.31622,-0.07781 20.31622,-6.425595"
       style="fill:none;stroke:#000000;stroke-width:1;stroke-linecap:butt;stroke-linejoin:miter;stroke-miterlimit:4;stroke-dasharray:none;stroke-opacity:1" />
    <path
       sodipodi:nodetypes="ccc"
       inkscape:connector-curvature="0"
       id="path823"
       d="m 67.468749,52.085733 c 0,-6.49796 3.918341,-0.24231 5.575148,-6.4256 1.703122,6.35614 5.764137,0.0778 5.764137,6.4256"
       style="fill:none;stroke:#000000;stroke-width:1;stroke-linecap:butt;stroke-linejoin:miter;stroke-miterlimit:4;stroke-dasharray:none;stroke-opacity:1" />
    <text
       xml:space="preserve"
       style="font-style:normal;font-weight:normal;font-size:10.58333302px;line-height:1.25;font-family:sans-serif;text-align:center;letter-spacing:0px;word-spacing:0px;text-anchor:middle;fill:#000000;fill-opacity:1;stroke:none;stroke-width:0.26458332"
       x="48.920959"
       y="42.891888"
       id="text827"><tspan
         sodipodi:role="line"
         id="tspan825"
         x="48.920959"
         y="42.891888"
         style="font-size:6.3499999px;text-align:center;text-anchor:middle;stroke-width:0.26458332">Year</tspan></text>
    <text
       id="text831"
       y="43.024189"
       x="73.022842"
       style="font-style:normal;font-weight:normal;font-size:10.58333302px;line-height:1.25;font-family:sans-serif;text-align:center;letter-spacing:0px;word-spacing:0px;text-anchor:middle;fill:#000000;fill-opacity:1;stroke:none;stroke-width:0.26458332"
       xml:space="preserve"><tspan
         style="font-size:6.3499999px;text-align:center;text-anchor:middle;stroke-width:0.26458332"
         y="43.024189"
         x="73.022842"
         id="tspan829"
         sodipodi:role="line">Month</tspan></text>
    <text
       id="text835"
       y="79.247887"
       x="58.049088"
       style="font-style:normal;font-weight:normal;font-size:10.58333302px;line-height:1.25;font-family:sans-serif;text-align:center;letter-spacing:0px;word-spacing:0px;text-anchor:middle;fill:#000000;fill-opacity:1;stroke:none;stroke-width:0.26458332"
       xml:space="preserve"><tspan
         style="font-size:6.3499999px;text-align:center;text-anchor:middle;stroke-width:0.26458332"
         y="79.247887"
         x="58.049088"
         id="tspan833"
         sodipodi:role="line">YearMonth</tspan></text>
    <path
       style="fill:none;stroke:#000000;stroke-width:1;stroke-linecap:butt;stroke-linejoin:miter;stroke-miterlimit:4;stroke-dasharray:none;stroke-opacity:1"
       d="m 67.468749,80.68802 c 0,6.497963 13.434225,0.242309 15.091032,6.425593 1.703122,-6.356137 14.142299,-0.0778 14.142299,-6.425593"
       id="path837"
       inkscape:connector-curvature="0"
       sodipodi:nodetypes="ccc" />
    <text
       xml:space="preserve"
       style="font-style:normal;font-weight:normal;font-size:10.58333302px;line-height:1.25;font-family:sans-serif;text-align:center;letter-spacing:0px;word-spacing:0px;text-anchor:middle;fill:#000000;fill-opacity:1;stroke:none;stroke-width:0.26458332"
       x="82.311745"
       y="95.064796"
       id="text841"><tspan
         sodipodi:role="line"
         id="tspan839"
         x="82.311745"
         y="95.064796"
         style="font-size:6.3499999px;text-align:center;text-anchor:middle;stroke-width:0.26458332">MonthDay</tspan></text>
    <path
       style="fill:none;stroke:#000000;stroke-width:1;stroke-linecap:butt;stroke-linejoin:miter;stroke-miterlimit:4;stroke-dasharray:none;stroke-opacity:1"
       d="m 36.096725,97.685561 c 0,6.497959 28.21423,0.24231 29.871037,6.425589 1.703122,-6.356139 30.606097,-0.0778 30.606097,-6.425589"
       id="path843"
       inkscape:connector-curvature="0"
       sodipodi:nodetypes="ccc" />
    <text
       xml:space="preserve"
       style="font-style:normal;font-weight:normal;font-size:10.58333302px;line-height:1.25;font-family:sans-serif;text-align:center;letter-spacing:0px;word-spacing:0px;text-anchor:middle;fill:#000000;fill-opacity:1;stroke:none;stroke-width:0.26458332"
       x="65.719719"
       y="111.74627"
       id="text847"><tspan
         sodipodi:role="line"
         id="tspan845"
         x="65.719719"
         y="111.74627"
         style="font-size:6.3499999px;text-align:center;text-anchor:middle;stroke-width:0.26458332">Date</tspan></text>
    <path
       sodipodi:nodetypes="ccc"
       inkscape:connector-curvature="0"
       id="path849"
       d="m 103.63573,97.685561 c 0,6.497959 21.85322,0.24231 23.51003,6.425589 1.70312,-6.356139 24.61926,-0.0778 24.61926,-6.425589"
       style="fill:none;stroke:#000000;stroke-width:1;stroke-linecap:butt;stroke-linejoin:miter;stroke-miterlimit:4;stroke-dasharray:none;stroke-opacity:1" />
    <text
       id="text853"
       y="111.74627"
       x="127.21869"
       style="font-style:normal;font-weight:normal;font-size:10.58333302px;line-height:1.25;font-family:sans-serif;text-align:center;letter-spacing:0px;word-spacing:0px;text-anchor:middle;fill:#000000;fill-opacity:1;stroke:none;stroke-width:0.26458332"
       xml:space="preserve"><tspan
         style="font-size:6.3499999px;text-align:center;text-anchor:middle;stroke-width:0.26458332"
         y="111.74627"
         x="127.21869"
         id="tspan851"
         sodipodi:role="line">Time</tspan></text>
    <path
       sodipodi:nodetypes="ccc"
       inkscape:connector-curvature="0"
       id="path855"
       d="m 36.096725,111.68967 c 0,6.49796 56.464617,0.24231 58.121427,6.42559 1.70312,-6.35614 57.546868,-0.0778 57.546868,-6.42559"
       style="fill:none;stroke:#000000;stroke-width:1;stroke-linecap:butt;stroke-linejoin:miter;stroke-miterlimit:4;stroke-dasharray:none;stroke-opacity:1" />
    <text
       id="text859"
       y="125.75035"
       x="94.04892"
       style="font-style:normal;font-weight:normal;font-size:10.58333302px;line-height:1.25;font-family:sans-serif;text-align:center;letter-spacing:0px;word-spacing:0px;text-anchor:middle;fill:#000000;fill-opacity:1;stroke:none;stroke-width:0.26458332"
       xml:space="preserve"><tspan
         style="font-size:6.3499999px;text-align:center;text-anchor:middle;stroke-width:0.26458332"
         y="125.75035"
         x="94.04892"
         id="tspan857"
         sodipodi:role="line">DateTime</tspan></text>
  </g>
</svg>
